<?xml version="1.0" encoding="utf-8"?>
<!-- Svg Vector Icons : http://www.onlinewebfonts.com/icon -->
<!DOCTYPE svg PUBLIC "-//W3C//DTD SVG 1.1//EN" "http://www.w3.org/Graphics/SVG/1.1/DTD/svg11.dtd">
<svg version="1.1" xmlns="http://www.w3.org/2000/svg" xmlns:xlink="http://www.w3.org/1999/xlink" x="0px" y="0px" viewBox="0 0 1000 1000" enable-background="new 0 0 1000 1000" xml:space="preserve">
<metadata> Svg Vector Icons : http://www.onlinewebfonts.com/icon </metadata>
<g><g transform="translate(0.000000,511.000000) scale(0.100000,-0.100000)"><path d="M968.7,4982c-396-105-740.6-453.5-841.6-851.5c-25.7-106.9-29.7-568.3-25.7-4069.4l5.9-3948.6l45.5-118.8c138.6-368.3,499-687.1,851.5-760.4c148.5-29.7,7839.7-29.7,7988.3,0c400,83.2,802,485.2,885.2,885.2c29.7,148.5,29.7,7839.7,0,7988.3c-73.3,352.5-392.1,712.9-760.4,851.5l-118.8,45.5l-3960.4,4C1612.2,5011.6,1063.7,5007.7,968.7,4982z M8867.8,4675c235.6-53.5,510.9-269.3,613.9-479.2c104.9-217.8,101-11.9,101-4085.2c0-4146.6,7.9-3855.5-112.9-4095.1c-65.3-128.7-247.5-310.9-378.2-376.2c-231.7-116.8,11.9-110.9-4093.1-110.9s-3861.4-5.9-4093.1,110.9c-132.7,67.3-312.9,247.5-380.2,380.2c-116.8,231.7-110.9-11.9-110.9,4093.1c0,4103-5.9,3861.4,110.9,4093.1c104.9,207.9,342.6,396,580.2,463.4C1222.1,4700.8,8729.2,4708.7,8867.8,4675z"/><path d="M3642,2469c-384.2-79.2-752.5-314.9-984.2-633.7l-43.6-59.4l-2,312.9v310.9h-346.5h-346.5V132.4V-2135h384.2h386.2l7.9,1451.5c6,1384.2,7.9,1457.5,47.5,1631.7c53.5,231.7,140.6,411.9,265.4,548.5c245.5,269.3,645.5,398,1005.9,320.8c330.7-69.3,497-263.4,566.3-659.4c23.8-140.6,29.7-431.7,29.7-1730.7V-2135h386.1h384.2l5.9,1520.8c7.9,1508.9,7.9,1518.8,51.5,1663.4c89.1,291.1,219.8,473.3,447.5,621.8c481.2,310.9,1170.3,172.3,1336.7-271.3c73.2-196,81.2-382.2,81.2-1984.2V-2135h386.2h386.1v1609.9c0,1651.5-7.9,1843.6-81.2,2110.9c-122.8,455.4-425.8,754.5-879.2,867.3c-99,23.8-223.8,33.7-435.7,33.7c-253.5,2-320.8-4-455.4-43.6c-316.8-91.1-617.8-297-831.7-566.3c-65.3-81.2-122.8-148.5-128.7-148.5c-5.9-2-33.7,49.5-65.4,112.9c-162.4,340.6-487.1,568.3-905,635.7C4123.2,2504.7,3800.4,2500.7,3642,2469z"/></g></g>
</svg>